<?xml version="1.0" standalone="no"?>
<!DOCTYPE svg PUBLIC "-//W3C//DTD SVG 20010904//EN"
 "http://www.w3.org/TR/2001/REC-SVG-20010904/DTD/svg10.dtd">
<svg version="1.0" xmlns="http://www.w3.org/2000/svg"
 width="858.000000pt" height="858.000000pt" viewBox="0 0 858.000000 858.000000"
 preserveAspectRatio="xMidYMid meet">
<metadata>
Created by potrace 1.14, written by Peter Selinger 2001-2017
</metadata>
<g transform="translate(0.000000,858.000000) scale(0.100000,-0.100000)"
fill="#000000" stroke="none">
<path d="M2168 8075 c-2 -1 -32 -5 -68 -9 -63 -5 -126 -16 -255 -42 -79 -16
-252 -70 -355 -111 -213 -86 -429 -211 -605 -351 -109 -87 -325 -306 -385
-392 -14 -19 -31 -41 -39 -50 -34 -36 -149 -225 -207 -338 -95 -188 -189 -465
-218 -647 -29 -173 -33 -236 -33 -425 0 -125 6 -222 17 -300 17 -106 21 -130
35 -199 16 -81 63 -246 106 -368 181 -523 509 -1079 993 -1683 84 -106 254
-307 290 -346 6 -6 40 -44 76 -85 205 -230 701 -726 886 -886 25 -22 163 -144
178 -158 40 -37 294 -249 406 -339 530 -425 1185 -856 1301 -856 101 0 777
439 1196 777 26 21 52 41 58 45 40 29 424 352 525 442 334 297 686 643 945
931 44 48 87 95 96 104 8 9 42 48 75 86 33 39 69 81 81 95 49 57 213 261 273
340 36 47 70 90 75 97 6 6 21 28 35 48 14 20 34 48 46 63 12 15 68 97 126 182
317 471 547 940 659 1347 25 92 66 289 74 353 3 25 8 72 12 105 9 80 9 330 0
430 -10 111 -14 135 -53 329 -2 10 -8 33 -14 51 -6 18 -12 42 -15 53 -22 114
-168 446 -261 592 -242 380 -566 676 -954 870 -232 117 -442 183 -720 227
-112 18 -494 25 -600 11 -30 -4 -75 -10 -100 -13 -25 -3 -97 -18 -160 -32
-438 -97 -833 -315 -1155 -638 -94 -94 -227 -249 -238 -277 -3 -9 -11 -5 -23
12 -34 46 -162 195 -206 240 -197 200 -411 356 -653 475 -108 54 -316 137
-375 150 -8 2 -49 12 -90 23 -41 11 -91 22 -110 26 -19 3 -46 8 -60 11 -120
23 -238 32 -427 33 -100 0 -183 -1 -185 -3z"/>
</g>
</svg>
